<?xml version="1.0" standalone="no"?>
<!DOCTYPE svg PUBLIC "-//W3C//DTD SVG 20010904//EN"
 "http://www.w3.org/TR/2001/REC-SVG-20010904/DTD/svg10.dtd">
<svg version="1.0" xmlns="http://www.w3.org/2000/svg"
 width="640.000000pt" height="640.000000pt" viewBox="0 0 640.000000 640.000000"
 preserveAspectRatio="xMidYMid meet">

<g transform="translate(0.000000,640.000000) scale(0.100000,-0.100000)"
fill="#000000" stroke="none">
<path d="M2630 5617 c-40 -20 -50 -52 -43 -137 12 -152 -37 -415 -97 -529 -68
-128 -224 -195 -703 -301 -302 -67 -407 -100 -551 -172 -131 -64 -214 -124
-306 -218 -138 -141 -198 -278 -244 -550 -43 -258 -51 -620 -22 -990 58 -762
77 -1320 56 -1710 -9 -184 -4 -208 49 -230 37 -15 78 -3 103 31 15 21 19 62
29 314 15 393 3 708 -61 1608 -30 419 -24 674 21 947 50 302 132 440 342 577
147 96 289 148 567 208 350 75 512 125 662 202 112 57 177 121 223 218 58 124
86 248 111 508 l5 57 431 -2 431 -3 4 -65 c16 -284 89 -516 196 -621 86 -85
273 -167 519 -230 232 -58 345 -79 372 -70 54 21 74 98 36 138 -23 26 -12 22
-240 74 -389 88 -546 160 -610 280 -62 116 -109 377 -96 535 7 77 6 83 -18
110 l-24 29 -559 2 c-435 2 -563 0 -583 -10z"/>
<path d="M5052 4467 c-31 -33 -30 -91 2 -120 13 -12 63 -44 112 -72 115 -64
235 -182 281 -275 62 -125 101 -307 123 -575 15 -182 12 -392 -10 -690 -10
-148 -31 -472 -46 -720 -26 -432 -27 -465 -16 -814 10 -330 13 -367 30 -390
25 -34 65 -46 103 -31 53 23 58 45 49 235 -20 389 -9 769 45 1545 33 470 37
578 26 777 -36 645 -148 887 -513 1103 -98 59 -149 66 -186 27z"/>
<path d="M1505 3435 c-33 -32 -31 -63 6 -138 23 -44 33 -80 36 -127 5 -69 -3
-107 -70 -335 -69 -235 -86 -484 -43 -640 33 -121 108 -254 194 -346 l43 -47
-1 -218 c0 -216 -8 -369 -31 -616 -11 -115 -10 -129 5 -153 33 -50 94 -55 135
-11 17 18 23 47 36 157 17 163 35 465 35 611 l0 107 53 -24 c102 -47 172 -60
322 -60 158 0 223 13 344 71 180 85 311 215 396 397 46 97 66 174 72 284 5 88
5 92 -20 117 -34 34 -88 35 -121 3 -19 -19 -25 -39 -31 -103 -16 -168 -76
-297 -194 -414 -125 -123 -270 -183 -446 -183 -179 0 -322 60 -450 188 -131
131 -189 271 -188 460 0 132 15 212 79 439 30 104 57 219 60 255 10 109 -28
245 -90 319 -36 42 -94 45 -131 7z"/>
<path d="M4894 3446 c-25 -18 -78 -124 -95 -189 -22 -88 -6 -212 51 -406 28
-96 58 -215 66 -265 21 -120 15 -286 -15 -376 -65 -204 -241 -370 -451 -426
-79 -20 -224 -23 -300 -5 -271 66 -474 298 -496 566 -9 117 -28 145 -97 145
-23 0 -41 -8 -58 -26 -22 -23 -24 -34 -22 -102 10 -362 289 -684 657 -758 125
-26 327 -11 427 30 14 6 17 -17 22 -211 7 -238 32 -539 48 -591 21 -65 106
-79 150 -24 18 23 20 35 15 87 -21 193 -35 437 -37 623 l-3 213 35 26 c62 47
153 150 195 219 151 254 160 503 35 922 -71 236 -73 295 -14 404 33 60 34 100
3 133 -27 29 -83 34 -116 11z"/>
</g>
</svg>
